<svg xmlns="http://www.w3.org/2000/svg" viewBox="0 0 179.38 145.16"><defs><style>.cls-1{fill:#f1dc5d;}.cls-2{fill:#333232;}.cls-3{fill:none;stroke:#333232;stroke-width:3px;}</style></defs><title>Asset 2</title><g id="Layer_2" data-name="Layer 2"><g id="Layer_1-2" data-name="Layer 1"><path class="cls-1" d="M74.67,59.93h5.68c2.84,0,6.25,1.57,6.25,6.4,0,2.84-1.27,5-4.12,5.64V72c3.16.75,4.62,2.95,4.62,6.15,0,4.62-3.13,7-6.54,7H74.67Zm4.62,10.38c2.3,0,2.91-1.07,2.91-3.34,0-2.88-.61-3.38-2.91-3.34Zm0,11.22c2.77,0,3.19-1.1,3.19-3.73,0-2.31-.57-3.62-3.19-3.59Z"/><path class="cls-1" d="M89.12,59.93H99.57v3.91H93.74v6.47H98v4.12h-4.3v6.89h6.08v3.91H89.12Z"/><path class="cls-1" d="M101.62,59.93h10.45v3.91h-5.83v6.47h4.3v4.12h-4.3v6.89h6.08v3.91h-10.7Z"/><path class="cls-2" d="M117.29,77.91c0,1.42,0,3.9,2,3.9a2.2,2.2,0,0,0,2.06-2.45c0-4.51-8.39-5.54-8.39-13,0-3.8,2.06-6.9,6-6.9,4.16,0,5.76,3.17,5.87,7.71h-4.13c0-1.42,0-3.8-1.84-3.8-1.1,0-1.74.92-1.74,2.31,0,4.3,8.38,5.76,8.38,13.11,0,3.87-2.2,7-6.36,7-4.94,0-5.93-4.33-5.93-7.81Z"/><path class="cls-2" d="M127.27,59.93h4.62c5.22,0,8,2.1,8,7.57,0,4.54-1.77,7.6-6.11,7.6h-1.84V85.23h-4.62Zm4.65,11.48h.39c1.89,0,2.92-.75,2.92-3.8,0-3.66-1.43-3.77-2.95-3.77h-.36Z"/><path class="cls-2" d="M142.72,59.93h6.68l3.13,25.3h-4.45l-.67-5.62h-3.73L143,85.23h-3.87Zm2.95,3.91h-.07l-1.46,12.08H147Z"/><path class="cls-2" d="M162,69.1c0-4.2-.53-5.76-1.67-5.76-1,0-1.92.64-1.92,9.24,0,8.31.5,9.23,1.92,9.23s1.89-2.34,2-6l3.9.18c0,4.4-.64,9.73-6,9.73-4.94,0-6.58-4.83-6.58-13.14,0-9.66,2.92-13.15,6.58-13.15,5.32,0,6,4.91,6,9.52Z"/><path class="cls-2" d="M168.68,59.93h10.45v3.91H173.3v6.47h4.3v4.12h-4.3v6.89h6.08v3.91h-10.7Z"/><polygon class="cls-2" points="113.26 91.08 113.3 103.39 62.38 132.29 11.23 101.48 11.02 41.77 61.95 12.87 113.1 43.68 113.13 54.08 124.12 54.08 124.06 37.46 61.91 0 0 35.14 0.26 107.71 62.42 145.16 124.32 110.03 124.25 91.08 113.26 91.08"/><line class="cls-3" x1="54.31" y1="66.51" x2="71.53" y2="66.51"/><line class="cls-3" x1="54.31" y1="72.58" x2="71.53" y2="72.58"/><line class="cls-3" x1="54.31" y1="78.65" x2="71.53" y2="78.65"/></g></g></svg>