<?xml version="1.0" encoding="utf-8"?>
<!-- Generator: Adobe Illustrator 22.1.0, SVG Export Plug-In . SVG Version: 6.00 Build 0)  -->
<svg version="1.1" id="Layer_1" xmlns="http://www.w3.org/2000/svg" xmlns:xlink="http://www.w3.org/1999/xlink" x="0px" y="0px"
	 viewBox="0 0 150 150" style="enable-background:new 0 0 150 150;" xml:space="preserve">
<style type="text/css">
	.st0{fill:#FFFFFF;}
</style>
<g>
	<path class="st0" d="M26,62.1c-1.3-0.8-2-1.7-2.4-2.6c-0.2-1.1-0.2-2,0-2.8c1.4-1.3,2.8-3.5,4-6.9c1.3-3.5,0.9-5.2-0.9-5.2
		c-1.3,0-3.5,0.8-6.6,2.4c-3,1.7-4.6,4.3-4.7,7.8c-0.2,1.3,0.3,2.6,1.4,4c1.1,1.3,2.5,2.6,4.3,4c3.2,2.7,6.9,5.5,11.3,8.5
		c3.6,2.4,6.8,4.8,9.5,7.3c2-1.3,4.2-2.5,6.4-3.8c8-4.4,12.6-8.6,13.7-12.5c1.1-0.2,2.2-0.2,3.3,0c1.3,0,2.2,0.2,2.8,0.7
		c-1.1,3.3-3.5,6.6-7.3,9.9c-3.9,3.2-8.3,6.3-13,9.5c-0.5,0.3-1,0.6-1.7,0.9c0.5,0.8,0.9,1.6,1.4,2.4c0.9,1.7,1.4,3.5,1.4,5.2
		c-0.3,3.5-1.1,6.7-2.4,9.7c-1.3,3-2.8,5.7-4.7,8c-2,2.4-4.4,4.4-7.1,6.1c-2.5,1.7-5.1,3.1-7.8,4c-2.8,0.9-5.5,1.5-8,1.7
		c-1.9,0-3.7-0.3-5.4-0.9c-3.9-1.3-6-4.4-6.1-9.5c-0.2-3.6,1.5-7.2,5-10.9c2.7-2.7,5.9-5.4,9.7-8c-0.5-1.3-1-2.4-1.7-3.5
		c-1.6-2.4-3.3-4.6-5.2-6.9C11.7,76.6,8.3,72.5,5,68.4c-3.3-3.9-5-9.1-5-15.6v-0.2c0-3.5,2.1-7,6.4-10.6c3.2-2.7,6.6-4,10.4-4
		c1.4,0,2.8,0.2,4.3,0.7c7.8,1.9,12.4,5.5,13.8,10.9C36.4,55.1,33.4,59.3,26,62.1z M13.2,108.7c-0.9,3-0.1,5,2.6,6.1s5,0.3,6.9-2.4
		c0.9-1.4,1.6-3.5,1.9-6.1c0.3-2.4,0.1-5.4-0.7-9.2C17.8,101,14.3,104.9,13.2,108.7z"/>
	<path class="st0" d="M87.9,48.9c0.5,0.6,0.6,1.4,0.2,2.4c-0.2,1.1-0.7,1.7-1.7,1.7c-3.2-1.9-5.8-2.9-7.8-3.1c-2,0-3.7,0.7-5,2.1
		c-1.6,1.6-2.6,3.9-3.1,6.9c-0.6,3.2-0.9,6.4-0.7,9.7c0.2,5.2,0.9,10.1,2.1,14.7c1.3,4.6,2.5,6.9,3.8,7.1c1.6,0.5,3.3-1.6,5.2-6.1
		c1.9-4.4,3.6-9.2,5.2-14.4c1.3-4.3,2.4-8.2,3.3-11.8s1.5-5.8,1.7-6.6c1.5-7.5,4.8-11.5,9.8-12.1c1.1-0.3,2.2-0.5,3.3-0.5
		c3,0,4.7,0.9,5.2,2.6c0.6,1.4,0.9,5.8,0.9,13.2s0.2,15,0.7,22.7c0.3,6.3,0.9,11.8,1.9,16.6c0.8,4.9,2,7.4,3.8,7.6
		c2,0.2,4.3-2,6.9-6.6c2.7-4.4,5.1-9.3,7.3-14.7c1.4-3.5,2.7-6.8,3.8-9.9c1.1-3.3,1.9-5.8,2.4-7.3c0.9-0.3,1.9-0.5,2.8-0.5
		c0.9,0,1.9,0.2,2.8,0.7c-0.8,3-2.2,7.7-4.3,14.2c-2,6.3-4.7,12.2-7.8,17.7c-2,3.6-4.3,6.7-6.9,9.2c-2.4,2.2-4.9,3.3-7.6,3.3h-0.5
		c-5.8-0.3-10.6-2.3-14.4-5.9c-3.6-3.5-6.5-7.2-8.5-11.1c-1.1-2-2-3.9-2.6-5.7c-0.6-1.7-1.1-3.2-1.4-4.3c-0.8,3.3-2.1,6.4-4,9.2
		c-1.9,3-5.8,4.5-11.6,4.5c-3.3-0.2-6.1-0.9-8.3-2.1c-2.2-1.3-3.9-3-5.2-5.2c-1.4-2.4-2.3-5-2.6-8c-0.2-1.3-0.2-2.5-0.2-3.8
		c0-1.7,0.2-3.5,0.5-5.2c0.8-5.8,2.8-11.3,5.9-16.5c3.2-5.2,6.8-8.4,10.9-9.7c2.2-0.6,4.4-0.6,6.6,0C83.2,44.7,85.5,46.3,87.9,48.9z
		"/>
</g>
<title>logo_teal</title>
</svg>
