<svg id="Layer_1" data-name="Layer 1" xmlns="http://www.w3.org/2000/svg" xmlns:xlink="http://www.w3.org/1999/xlink" viewBox="0 0 140 140"><defs><style>.cls-1{fill:none;}.cls-2{clip-path:url(#clip-path);}.cls-3{fill:#c25e2c;}.cls-4{clip-path:url(#clip-path-2);}.cls-5{fill:#fff;}</style><clipPath id="clip-path"><rect class="cls-1" y="1.13" width="140" height="137.87"/></clipPath><clipPath id="clip-path-2"><ellipse class="cls-1" cx="70" cy="70.07" rx="70" ry="68.93"/></clipPath></defs><title>SA_logo</title><g class="cls-2"><path class="cls-3" d="M140,70.07C140,108.14,108.66,139,70,139S0,108.14,0,70.07,31.34,1.13,70,1.13,140,32,140,70.07"/></g><g class="cls-4"><path class="cls-5" d="M15.52,102.74c-.93,2.94-.08,5,2.55,6s4.87.31,6.73-2.32a14,14,0,0,0,1.86-6,28.38,28.38,0,0,0-.7-9.05q-8.82,5.79-10.44,11.36M28.05,57.05a5.07,5.07,0,0,1-2.32-2.55,8.05,8.05,0,0,1,0-2.78q2.09-1.86,3.94-6.73,1.86-5.1-.93-5.1-1.86,0-6.49,2.32a8.78,8.78,0,0,0-4.64,7.65A5.4,5.4,0,0,0,19,53.8a34.71,34.71,0,0,0,4.18,4A129.63,129.63,0,0,0,34.31,66.1a66.77,66.77,0,0,1,9.28,7.19c2-1.24,4.09-2.47,6.26-3.71q11.84-6.49,13.45-12.3a11.79,11.79,0,0,1,3.25,0,4.59,4.59,0,0,1,2.79.7c-1.09,3.25-3.48,6.49-7.2,9.74C58.28,70.82,54,73.9,49.39,77a15.76,15.76,0,0,1-1.63.93l1.4,2.32a10.65,10.65,0,0,1,1.39,5.1,32,32,0,0,1-2.32,9.51,33.12,33.12,0,0,1-4.64,7.88,32.81,32.81,0,0,1-7,6A32.76,32.76,0,0,1,29,112.72a30.82,30.82,0,0,1-7.88,1.62,15.5,15.5,0,0,1-5.34-.93c-3.86-1.23-5.88-4.32-6-9.27Q9.5,98.8,14.59,93.47a73.75,73.75,0,0,1,9.51-7.89,23.14,23.14,0,0,0-1.62-3.48,72.15,72.15,0,0,0-5.1-6.73q-5.1-6-10-12.06Q2.52,57.52,2.53,48v-.23c0-3.39,2.09-6.88,6.26-10.44A15.48,15.48,0,0,1,19,33.39a13,13,0,0,1,4.18.7q11.6,2.77,13.68,10.67,2.09,8.12-8.81,12.29"/><path class="cls-5" d="M88.82,44.06a2.41,2.41,0,0,1,.23,2.32C88.9,47.46,88.36,48,87.42,48c-3.09-1.85-5.64-2.86-7.65-3a6.22,6.22,0,0,0-4.87,2.09,11.78,11.78,0,0,0-3,6.72,38.57,38.57,0,0,0-.7,9.51,60.38,60.38,0,0,0,2.09,14.38q1.84,6.74,3.71,7c1.54.47,3.25-1.54,5.1-6a133.32,133.32,0,0,0,5.1-14.15q1.86-6.26,3.25-11.59c.93-3.56,1.47-5.72,1.62-6.5q2.1-10.66,9.51-11.6a11.81,11.81,0,0,1,3.25-.46q4.41,0,5.11,2.55.91,2.09.92,13t.7,22.27a111.9,111.9,0,0,0,1.86,16.23c.77,4.8,2,7.27,3.71,7.43,2,.15,4.25-2,6.72-6.5A103.1,103.1,0,0,0,131,74.91q2.1-5.1,3.71-9.74c1.08-3.25,3.09-5.65,3.55-7.19a8.72,8.72,0,0,1,2.78-.47,6.19,6.19,0,0,1,2.78.7c-.77,2.94-3.39,7.58-5.39,13.92a92.91,92.91,0,0,1-7.66,17.39,41.39,41.39,0,0,1-6.73,9,10.71,10.71,0,0,1-7.42,3.25h-.46A21.37,21.37,0,0,1,102,96a44.38,44.38,0,0,1-10.9-16.47c-.62-1.7-1.09-3.09-1.39-4.18a27.82,27.82,0,0,1-4,9c-1.85,2.94-5.65,4.41-11.36,4.41a17.82,17.82,0,0,1-8.12-2.09,13.36,13.36,0,0,1-5.1-5.1,19,19,0,0,1-2.56-7.89A30.79,30.79,0,0,1,58.43,70a27.5,27.5,0,0,1,.47-5.1A41.7,41.7,0,0,1,64.7,48.7q4.64-7.65,10.66-9.51a11.59,11.59,0,0,1,6.5,0,17.51,17.51,0,0,1,7,4.87"/></g></svg>